<svg width="100" height="100" viewBox="0 0 100 100" fill="none" xmlns="http://www.w3.org/2000/svg">
<g clip-path="url(#clip0_351_20)">
<rect width="100" height="100" fill="#518BCF"/>
<path d="M6.41509 67L2.10819 31.9438H11.8738L15.5297 62.2925H10.3714L26.3971 31.9438H35.5618L38.9172 62.2925H34.0594L49.9849 31.9438H59.8007L41.4212 67H30.8042L27.6992 41.2087H30.704L17.0822 67H6.41509ZM67.8432 67L59.8805 31.9438H70.0468L76.7575 62.3425H70.2972L89.3777 31.9438H99.5941L77.6089 67H67.8432Z" fill="white"/>
<path d="M48.7843 75.169C47.7075 75.169 46.7685 74.975 45.9673 74.5868C45.166 74.1987 44.5462 73.6604 44.108 72.9717C43.6698 72.2706 43.4507 71.4568 43.4507 70.5303C43.4507 69.4035 43.7199 68.4019 44.2583 67.5255C44.7966 66.6366 45.5353 65.9355 46.4743 65.4221C47.4133 64.9088 48.49 64.6522 49.7045 64.6522C50.7937 64.6522 51.7327 64.8462 52.5215 65.2343C53.3228 65.6099 53.9425 66.1421 54.3807 66.8307C54.8189 67.5193 55.038 68.3331 55.038 69.2721C55.038 70.3989 54.7689 71.4067 54.2305 72.2957C53.6921 73.1846 52.9535 73.8857 52.0144 74.399C51.0754 74.9124 49.9987 75.169 48.7843 75.169ZM48.9909 72.3332C49.4666 72.3332 49.886 72.2143 50.2491 71.9764C50.6122 71.726 50.8939 71.388 51.0942 70.9623C51.3071 70.5366 51.4135 70.0358 51.4135 69.4599C51.4135 68.8965 51.2445 68.427 50.9064 68.0514C50.5809 67.6758 50.1114 67.488 49.4979 67.488C49.0222 67.488 48.6027 67.6069 48.2396 67.8448C47.8766 68.0827 47.5886 68.4207 47.3758 68.8589C47.1754 69.2846 47.0753 69.7854 47.0753 70.3613C47.0753 70.9623 47.2443 71.4443 47.5823 71.8074C47.9204 72.1579 48.3899 72.3332 48.9909 72.3332ZM55.621 75L57.6492 64.8212H61.0296L60.4474 67.7133L60.1094 66.887C60.5601 66.0732 61.1548 65.4973 61.8935 65.1592C62.6322 64.8212 63.4961 64.6522 64.4852 64.6522L63.8654 67.8636C63.7152 67.8385 63.5775 67.826 63.4523 67.826C63.3271 67.8135 63.1956 67.8072 63.0579 67.8072C62.2816 67.8072 61.6431 67.995 61.1423 68.3706C60.654 68.7337 60.3285 69.3409 60.1657 70.1923L59.1892 75H55.621Z" fill="white"/>
</g>
<defs>
<clipPath id="clip0_351_20">
<rect width="100" height="100" fill="white"/>
</clipPath>
</defs>
</svg>
