<svg width="254" height="100" viewBox="0 0 254 100" fill="none" xmlns="http://www.w3.org/2000/svg">
<g clip-path="url(#clip0_351_20)">
<rect width="254" height="100" rx="6" fill="#518BCF"/>
<path d="M34.46 57L28.94 24.48H39.38L43.46 51.66H38.12L53.06 24.48H62.84L67.04 51.66H61.7L76.58 24.48H87.26L69.5 57H58.22L54.32 34.5H57.74L45.62 57H34.46ZM101.557 57.54C98.0773 57.54 95.0373 56.94 92.4373 55.74C89.8773 54.5 87.8773 52.78 86.4373 50.58C84.9973 48.34 84.2773 45.72 84.2773 42.72C84.2773 39.12 85.0973 35.92 86.7373 33.12C88.3773 30.28 90.6773 28.04 93.6373 26.4C96.5973 24.76 100.037 23.94 103.957 23.94C107.277 23.94 110.117 24.54 112.477 25.74C114.877 26.94 116.717 28.62 117.997 30.78C119.317 32.9 119.977 35.38 119.977 38.22C119.977 39.18 119.917 40.1 119.797 40.98C119.677 41.86 119.517 42.72 119.317 43.56H93.2173L94.2973 37.56H114.037L109.297 39.3C109.617 37.74 109.557 36.44 109.117 35.4C108.717 34.32 108.017 33.5 107.017 32.94C106.057 32.34 104.857 32.04 103.417 32.04C101.577 32.04 100.057 32.5 98.8573 33.42C97.6973 34.34 96.8173 35.6 96.2173 37.2C95.6573 38.76 95.3773 40.46 95.3773 42.3C95.3773 44.54 95.9973 46.2 97.2373 47.28C98.4773 48.32 100.337 48.84 102.817 48.84C104.257 48.84 105.657 48.62 107.017 48.18C108.417 47.7 109.637 47.04 110.677 46.2L115.417 53.34C113.377 54.86 111.157 55.94 108.757 56.58C106.397 57.22 103.997 57.54 101.557 57.54ZM136.279 57.54C133.959 57.54 131.739 56.96 129.619 55.8C127.499 54.64 125.779 52.96 124.459 50.76C123.179 48.56 122.539 45.88 122.539 42.72C122.539 40 122.999 37.5 123.919 35.22C124.839 32.94 126.099 30.96 127.699 29.28C129.339 27.6 131.219 26.3 133.339 25.38C135.499 24.42 137.779 23.94 140.179 23.94C142.819 23.94 145.079 24.46 146.959 25.5C148.879 26.5 150.279 28.14 151.159 30.42C152.039 32.66 152.239 35.7 151.759 39.54C151.399 43.18 150.539 46.36 149.179 49.08C147.819 51.8 146.059 53.9 143.899 55.38C141.739 56.82 139.199 57.54 136.279 57.54ZM140.239 48.36C141.759 48.36 143.099 47.98 144.259 47.22C145.419 46.46 146.319 45.4 146.959 44.04C147.639 42.68 147.979 41.1 147.979 39.3C147.979 37.42 147.439 35.92 146.359 34.8C145.279 33.64 143.759 33.06 141.799 33.06C140.319 33.06 138.979 33.46 137.779 34.26C136.619 35.02 135.699 36.08 135.019 37.44C134.379 38.8 134.059 40.38 134.059 42.18C134.059 44.06 134.599 45.56 135.679 46.68C136.759 47.8 138.279 48.36 140.239 48.36ZM145.039 57L146.179 51.54L148.339 40.8L149.779 30.06L150.919 24.48H162.319L155.839 57H145.039ZM163.178 57L169.658 24.48H180.458L178.598 33.72L177.518 31.08C178.958 28.48 180.858 26.64 183.218 25.56C185.578 24.48 188.338 23.94 191.498 23.94L189.518 34.2C189.038 34.12 188.598 34.08 188.198 34.08C187.798 34.04 187.378 34.02 186.938 34.02C184.458 34.02 182.418 34.62 180.818 35.82C179.258 36.98 178.218 38.92 177.698 41.64L174.578 57H163.178ZM199.718 57L192.818 24.48H204.098L209.498 51.72H203.618L220.118 24.48H231.398L211.538 57H199.718Z" fill="white"/>
<path d="M57.928 73.112C57.1067 73.112 56.3653 72.9307 55.704 72.568C55.0533 72.1947 54.5413 71.6827 54.168 71.032C53.7947 70.3813 53.608 69.6133 53.608 68.728C53.608 67.8427 53.7947 67.0747 54.168 66.424C54.5413 65.7733 55.0533 65.2667 55.704 64.904C56.3653 64.5413 57.1067 64.36 57.928 64.36C58.6427 64.36 59.2827 64.52 59.848 64.84C60.4133 65.1493 60.8613 65.624 61.192 66.264C61.5227 66.904 61.688 67.7253 61.688 68.728C61.688 69.72 61.528 70.5413 61.208 71.192C60.888 71.832 60.4453 72.312 59.88 72.632C59.3147 72.952 58.664 73.112 57.928 73.112ZM58.168 71.4C58.648 71.4 59.0747 71.2933 59.448 71.08C59.832 70.8667 60.136 70.5573 60.36 70.152C60.5947 69.7467 60.712 69.272 60.712 68.728C60.712 68.1733 60.5947 67.6987 60.36 67.304C60.136 66.8987 59.832 66.5893 59.448 66.376C59.0747 66.1627 58.648 66.056 58.168 66.056C57.688 66.056 57.256 66.1627 56.872 66.376C56.4987 66.5893 56.1947 66.8987 55.96 67.304C55.736 67.6987 55.624 68.1733 55.624 68.728C55.624 69.272 55.736 69.7467 55.96 70.152C56.1947 70.5573 56.4987 70.8667 56.872 71.08C57.256 71.2933 57.688 71.4 58.168 71.4ZM60.76 73V70.984L60.84 68.712L60.68 66.44V61.128H62.664V73H60.76ZM69.3124 73.112C68.363 73.112 67.531 72.9253 66.8164 72.552C66.1124 72.168 65.563 71.6453 65.1684 70.984C64.7844 70.3227 64.5924 69.5707 64.5924 68.728C64.5924 67.8747 64.779 67.1227 65.1524 66.472C65.5364 65.8107 66.059 65.2933 66.7204 64.92C67.3924 64.5467 68.155 64.36 69.0084 64.36C69.8404 64.36 70.5817 64.5413 71.2324 64.904C71.883 65.2667 72.395 65.7787 72.7684 66.44C73.1417 67.1013 73.3284 67.88 73.3284 68.776C73.3284 68.8613 73.323 68.9573 73.3124 69.064C73.3124 69.1707 73.307 69.272 73.2964 69.368H66.1764V68.04H72.2404L71.4564 68.456C71.467 67.9653 71.3657 67.5333 71.1524 67.16C70.939 66.7867 70.6457 66.4933 70.2724 66.28C69.9097 66.0667 69.4884 65.96 69.0084 65.96C68.5177 65.96 68.0857 66.0667 67.7124 66.28C67.3497 66.4933 67.0617 66.792 66.8484 67.176C66.6457 67.5493 66.5444 67.992 66.5444 68.504V68.824C66.5444 69.336 66.6617 69.7893 66.8964 70.184C67.131 70.5787 67.4617 70.8827 67.8884 71.096C68.315 71.3093 68.8057 71.416 69.3604 71.416C69.8404 71.416 70.2724 71.3413 70.6564 71.192C71.0404 71.0427 71.3817 70.808 71.6804 70.488L72.7524 71.72C72.3684 72.168 71.883 72.5147 71.2964 72.76C70.7204 72.9947 70.059 73.112 69.3124 73.112ZM77.8895 73.112C77.1748 73.112 76.4868 73.0213 75.8255 72.84C75.1748 72.648 74.6575 72.4187 74.2735 72.152L75.0415 70.632C75.4255 70.8773 75.8842 71.08 76.4175 71.24C76.9508 71.4 77.4842 71.48 78.0175 71.48C78.6468 71.48 79.1002 71.3947 79.3775 71.224C79.6655 71.0533 79.8095 70.824 79.8095 70.536C79.8095 70.3013 79.7135 70.1253 79.5215 70.008C79.3295 69.88 79.0788 69.784 78.7695 69.72C78.4602 69.656 78.1135 69.5973 77.7295 69.544C77.3562 69.4907 76.9775 69.4213 76.5935 69.336C76.2202 69.24 75.8788 69.1067 75.5695 68.936C75.2602 68.7547 75.0095 68.5147 74.8175 68.216C74.6255 67.9173 74.5295 67.5227 74.5295 67.032C74.5295 66.488 74.6842 66.0187 74.9935 65.624C75.3028 65.2187 75.7348 64.9093 76.2895 64.696C76.8548 64.472 77.5215 64.36 78.2895 64.36C78.8655 64.36 79.4468 64.424 80.0335 64.552C80.6202 64.68 81.1055 64.8613 81.4895 65.096L80.7215 66.616C80.3162 66.3707 79.9055 66.2053 79.4895 66.12C79.0842 66.024 78.6788 65.976 78.2735 65.976C77.6655 65.976 77.2122 66.0667 76.9135 66.248C76.6255 66.4293 76.4815 66.6587 76.4815 66.936C76.4815 67.192 76.5775 67.384 76.7695 67.512C76.9615 67.64 77.2122 67.7413 77.5215 67.816C77.8308 67.8907 78.1722 67.9547 78.5455 68.008C78.9295 68.0507 79.3082 68.12 79.6815 68.216C80.0548 68.312 80.3962 68.4453 80.7055 68.616C81.0255 68.776 81.2815 69.0053 81.4735 69.304C81.6655 69.6027 81.7615 69.992 81.7615 70.472C81.7615 71.0053 81.6015 71.4693 81.2815 71.864C80.9722 72.2587 80.5295 72.568 79.9535 72.792C79.3775 73.0053 78.6895 73.112 77.8895 73.112ZM83.4839 73V64.456H85.4839V73H83.4839ZM84.4919 63.048C84.1185 63.048 83.8092 62.9307 83.5639 62.696C83.3292 62.4613 83.2119 62.1787 83.2119 61.848C83.2119 61.5067 83.3292 61.224 83.5639 61C83.8092 60.7653 84.1185 60.648 84.4919 60.648C84.8652 60.648 85.1692 60.76 85.4039 60.984C85.6492 61.1973 85.7719 61.4693 85.7719 61.8C85.7719 62.152 85.6545 62.4507 85.4199 62.696C85.1852 62.9307 84.8759 63.048 84.4919 63.048ZM91.9809 76.216C91.1915 76.216 90.4182 76.1093 89.6609 75.896C88.9142 75.6933 88.3009 75.3947 87.8209 75L88.7169 73.496C89.0902 73.8053 89.5595 74.0507 90.1249 74.232C90.7009 74.424 91.2822 74.52 91.8689 74.52C92.8075 74.52 93.4955 74.3013 93.9329 73.864C94.3702 73.4373 94.5889 72.792 94.5889 71.928V70.408L94.7489 68.472L94.6849 66.536V64.456H96.5889V71.704C96.5889 73.2507 96.1942 74.3867 95.4049 75.112C94.6155 75.848 93.4742 76.216 91.9809 76.216ZM91.7249 72.616C90.9142 72.616 90.1782 72.4453 89.5169 72.104C88.8662 71.752 88.3489 71.2667 87.9649 70.648C87.5915 70.0293 87.4049 69.304 87.4049 68.472C87.4049 67.6507 87.5915 66.9307 87.9649 66.312C88.3489 65.6933 88.8662 65.2133 89.5169 64.872C90.1782 64.5307 90.9142 64.36 91.7249 64.36C92.4502 64.36 93.1009 64.504 93.6769 64.792C94.2529 65.08 94.7115 65.528 95.0529 66.136C95.4049 66.744 95.5809 67.5227 95.5809 68.472C95.5809 69.4213 95.4049 70.2053 95.0529 70.824C94.7115 71.432 94.2529 71.8853 93.6769 72.184C93.1009 72.472 92.4502 72.616 91.7249 72.616ZM92.0289 70.92C92.5302 70.92 92.9782 70.8187 93.3729 70.616C93.7675 70.4027 94.0715 70.1147 94.2849 69.752C94.5089 69.3787 94.6209 68.952 94.6209 68.472C94.6209 67.992 94.5089 67.5707 94.2849 67.208C94.0715 66.8347 93.7675 66.552 93.3729 66.36C92.9782 66.1573 92.5302 66.056 92.0289 66.056C91.5275 66.056 91.0742 66.1573 90.6689 66.36C90.2742 66.552 89.9649 66.8347 89.7409 67.208C89.5275 67.5707 89.4209 67.992 89.4209 68.472C89.4209 68.952 89.5275 69.3787 89.7409 69.752C89.9649 70.1147 90.2742 70.4027 90.6689 70.616C91.0742 70.8187 91.5275 70.92 92.0289 70.92ZM104.066 64.36C104.749 64.36 105.357 64.4933 105.89 64.76C106.434 65.0267 106.861 65.4373 107.17 65.992C107.48 66.536 107.634 67.24 107.634 68.104V73H105.634V68.36C105.634 67.6027 105.453 67.0373 105.09 66.664C104.738 66.2907 104.242 66.104 103.602 66.104C103.133 66.104 102.717 66.2 102.354 66.392C101.992 66.584 101.709 66.872 101.506 67.256C101.314 67.6293 101.218 68.104 101.218 68.68V73H99.2183V64.456H101.122V66.76L100.786 66.056C101.085 65.512 101.517 65.096 102.082 64.808C102.658 64.5093 103.32 64.36 104.066 64.36ZM118.017 73.16C117.239 73.16 116.54 73.032 115.921 72.776C115.303 72.52 114.817 72.168 114.465 71.72C114.113 71.272 113.937 70.7547 113.937 70.168C113.937 69.6347 114.055 69.1547 114.289 68.728C114.524 68.3013 114.897 67.896 115.409 67.512C115.921 67.1173 116.577 66.7227 117.377 66.328C118.007 66.0187 118.497 65.7467 118.849 65.512C119.212 65.2773 119.463 65.0533 119.601 64.84C119.751 64.6267 119.825 64.4027 119.825 64.168C119.825 63.848 119.713 63.592 119.489 63.4C119.265 63.1973 118.945 63.096 118.529 63.096C118.081 63.096 117.729 63.208 117.473 63.432C117.228 63.6453 117.105 63.928 117.105 64.28C117.105 64.4613 117.137 64.6373 117.201 64.808C117.276 64.9787 117.404 65.1707 117.585 65.384C117.767 65.5973 118.028 65.8693 118.369 66.2L124.289 71.88L123.185 73.176L116.785 67.032C116.423 66.68 116.129 66.3547 115.905 66.056C115.681 65.7573 115.521 65.4693 115.425 65.192C115.329 64.904 115.281 64.6107 115.281 64.312C115.281 63.7893 115.415 63.3307 115.681 62.936C115.948 62.5307 116.327 62.2213 116.817 62.008C117.308 61.784 117.879 61.672 118.529 61.672C119.137 61.672 119.66 61.7733 120.097 61.976C120.545 62.168 120.892 62.4507 121.137 62.824C121.393 63.1867 121.521 63.624 121.521 64.136C121.521 64.584 121.409 65 121.185 65.384C120.961 65.7573 120.609 66.1147 120.129 66.456C119.66 66.7973 119.031 67.1547 118.241 67.528C117.655 67.816 117.191 68.088 116.849 68.344C116.508 68.6 116.263 68.856 116.113 69.112C115.964 69.368 115.889 69.6507 115.889 69.96C115.889 70.2693 115.98 70.5413 116.161 70.776C116.353 71.0107 116.62 71.1973 116.961 71.336C117.303 71.464 117.703 71.528 118.161 71.528C118.844 71.528 119.463 71.3787 120.017 71.08C120.583 70.7707 121.057 70.312 121.441 69.704C121.825 69.096 122.103 68.344 122.273 67.448L123.889 67.976C123.665 69.0533 123.276 69.9813 122.721 70.76C122.177 71.528 121.505 72.12 120.705 72.536C119.905 72.952 119.009 73.16 118.017 73.16ZM135.048 73.112C134.323 73.112 133.677 72.952 133.112 72.632C132.547 72.312 132.099 71.832 131.768 71.192C131.448 70.5413 131.288 69.72 131.288 68.728C131.288 67.7253 131.453 66.904 131.784 66.264C132.125 65.624 132.579 65.1493 133.144 64.84C133.72 64.52 134.355 64.36 135.048 64.36C135.891 64.36 136.632 64.5413 137.272 64.904C137.923 65.2667 138.435 65.7733 138.808 66.424C139.192 67.0747 139.384 67.8427 139.384 68.728C139.384 69.6133 139.192 70.3813 138.808 71.032C138.435 71.6827 137.923 72.1947 137.272 72.568C136.632 72.9307 135.891 73.112 135.048 73.112ZM130.312 73V61.128H132.312V66.44L132.152 68.712L132.216 70.984V73H130.312ZM134.824 71.4C135.304 71.4 135.731 71.2933 136.104 71.08C136.488 70.8667 136.792 70.5573 137.016 70.152C137.24 69.7467 137.352 69.272 137.352 68.728C137.352 68.1733 137.24 67.6987 137.016 67.304C136.792 66.8987 136.488 66.5893 136.104 66.376C135.731 66.1627 135.304 66.056 134.824 66.056C134.344 66.056 133.912 66.1627 133.528 66.376C133.144 66.5893 132.84 66.8987 132.616 67.304C132.392 67.6987 132.28 68.1733 132.28 68.728C132.28 69.272 132.392 69.7467 132.616 70.152C132.84 70.5573 133.144 70.8667 133.528 71.08C133.912 71.2933 134.344 71.4 134.824 71.4ZM146.435 73V71.272L146.323 70.904V67.88C146.323 67.2933 146.147 66.84 145.795 66.52C145.443 66.1893 144.91 66.024 144.195 66.024C143.715 66.024 143.241 66.0987 142.771 66.248C142.313 66.3973 141.923 66.6053 141.603 66.872L140.819 65.416C141.278 65.064 141.822 64.8027 142.451 64.632C143.091 64.4507 143.753 64.36 144.435 64.36C145.673 64.36 146.627 64.6587 147.299 65.256C147.982 65.8427 148.323 66.7547 148.323 67.992V73H146.435ZM143.747 73.112C143.107 73.112 142.547 73.0053 142.067 72.792C141.587 72.568 141.214 72.264 140.947 71.88C140.691 71.4853 140.563 71.0427 140.563 70.552C140.563 70.072 140.675 69.64 140.899 69.256C141.134 68.872 141.513 68.568 142.035 68.344C142.558 68.12 143.251 68.008 144.115 68.008H146.595V69.336H144.259C143.577 69.336 143.118 69.448 142.883 69.672C142.649 69.8853 142.531 70.152 142.531 70.472C142.531 70.8347 142.675 71.1227 142.963 71.336C143.251 71.5493 143.651 71.656 144.163 71.656C144.654 71.656 145.091 71.544 145.475 71.32C145.87 71.096 146.153 70.7653 146.323 70.328L146.659 71.528C146.467 72.0293 146.121 72.4187 145.619 72.696C145.129 72.9733 144.505 73.112 143.747 73.112ZM154.826 73.112C153.93 73.112 153.13 72.9253 152.426 72.552C151.732 72.168 151.188 71.6453 150.794 70.984C150.399 70.3227 150.202 69.5707 150.202 68.728C150.202 67.8747 150.399 67.1227 150.794 66.472C151.188 65.8107 151.732 65.2933 152.426 64.92C153.13 64.5467 153.93 64.36 154.826 64.36C155.658 64.36 156.388 64.5307 157.018 64.872C157.658 65.2027 158.143 65.6933 158.474 66.344L156.938 67.24C156.682 66.8347 156.367 66.536 155.994 66.344C155.631 66.152 155.236 66.056 154.81 66.056C154.319 66.056 153.876 66.1627 153.482 66.376C153.087 66.5893 152.778 66.8987 152.554 67.304C152.33 67.6987 152.218 68.1733 152.218 68.728C152.218 69.2827 152.33 69.7627 152.554 70.168C152.778 70.5627 153.087 70.8667 153.482 71.08C153.876 71.2933 154.319 71.4 154.81 71.4C155.236 71.4 155.631 71.304 155.994 71.112C156.367 70.92 156.682 70.6213 156.938 70.216L158.474 71.112C158.143 71.752 157.658 72.248 157.018 72.6C156.388 72.9413 155.658 73.112 154.826 73.112ZM161.757 71.096L161.805 68.584L166.269 64.456H168.669L164.877 68.264L163.821 69.144L161.757 71.096ZM160.125 73V61.128H162.125V73H160.125ZM166.573 73L163.453 69.144L164.717 67.544L169.005 73H166.573ZM173.969 73.112C173.019 73.112 172.187 72.9253 171.473 72.552C170.769 72.168 170.219 71.6453 169.825 70.984C169.441 70.3227 169.249 69.5707 169.249 68.728C169.249 67.8747 169.435 67.1227 169.809 66.472C170.193 65.8107 170.715 65.2933 171.377 64.92C172.049 64.5467 172.811 64.36 173.665 64.36C174.497 64.36 175.238 64.5413 175.889 64.904C176.539 65.2667 177.051 65.7787 177.425 66.44C177.798 67.1013 177.985 67.88 177.985 68.776C177.985 68.8613 177.979 68.9573 177.969 69.064C177.969 69.1707 177.963 69.272 177.953 69.368H170.833V68.04H176.897L176.113 68.456C176.123 67.9653 176.022 67.5333 175.809 67.16C175.595 66.7867 175.302 66.4933 174.929 66.28C174.566 66.0667 174.145 65.96 173.665 65.96C173.174 65.96 172.742 66.0667 172.369 66.28C172.006 66.4933 171.718 66.792 171.505 67.176C171.302 67.5493 171.201 67.992 171.201 68.504V68.824C171.201 69.336 171.318 69.7893 171.553 70.184C171.787 70.5787 172.118 70.8827 172.545 71.096C172.971 71.3093 173.462 71.416 174.017 71.416C174.497 71.416 174.929 71.3413 175.313 71.192C175.697 71.0427 176.038 70.808 176.337 70.488L177.409 71.72C177.025 72.168 176.539 72.5147 175.953 72.76C175.377 72.9947 174.715 73.112 173.969 73.112ZM184.754 64.36C185.436 64.36 186.044 64.4933 186.578 64.76C187.122 65.0267 187.548 65.4373 187.858 65.992C188.167 66.536 188.322 67.24 188.322 68.104V73H186.322V68.36C186.322 67.6027 186.14 67.0373 185.778 66.664C185.426 66.2907 184.93 66.104 184.29 66.104C183.82 66.104 183.404 66.2 183.042 66.392C182.679 66.584 182.396 66.872 182.194 67.256C182.002 67.6293 181.906 68.104 181.906 68.68V73H179.906V64.456H181.81V66.76L181.474 66.056C181.772 65.512 182.204 65.096 182.77 64.808C183.346 64.5093 184.007 64.36 184.754 64.36ZM194.491 73.112C193.669 73.112 192.928 72.9307 192.267 72.568C191.616 72.1947 191.104 71.6827 190.731 71.032C190.357 70.3813 190.171 69.6133 190.171 68.728C190.171 67.8427 190.357 67.0747 190.731 66.424C191.104 65.7733 191.616 65.2667 192.267 64.904C192.928 64.5413 193.669 64.36 194.491 64.36C195.205 64.36 195.845 64.52 196.411 64.84C196.976 65.1493 197.424 65.624 197.755 66.264C198.085 66.904 198.251 67.7253 198.251 68.728C198.251 69.72 198.091 70.5413 197.771 71.192C197.451 71.832 197.008 72.312 196.443 72.632C195.877 72.952 195.227 73.112 194.491 73.112ZM194.731 71.4C195.211 71.4 195.637 71.2933 196.011 71.08C196.395 70.8667 196.699 70.5573 196.923 70.152C197.157 69.7467 197.275 69.272 197.275 68.728C197.275 68.1733 197.157 67.6987 196.923 67.304C196.699 66.8987 196.395 66.5893 196.011 66.376C195.637 66.1627 195.211 66.056 194.731 66.056C194.251 66.056 193.819 66.1627 193.435 66.376C193.061 66.5893 192.757 66.8987 192.523 67.304C192.299 67.6987 192.187 68.1733 192.187 68.728C192.187 69.272 192.299 69.7467 192.523 70.152C192.757 70.5573 193.061 70.8667 193.435 71.08C193.819 71.2933 194.251 71.4 194.731 71.4ZM197.323 73V70.984L197.403 68.712L197.243 66.44V61.128H199.227V73H197.323Z" fill="white"/>
</g>
<defs>
<clipPath id="clip0_351_20">
<rect width="254" height="100" rx="6" fill="white"/>
</clipPath>
</defs>
</svg>
